<svg xmlns="http://www.w3.org/2000/svg" viewBox="0 0 780 180" font-family="Segoe UI, Arial, sans-serif" font-size="12">
  <defs>
    <marker id="arrow" markerWidth="8" markerHeight="6" refX="8" refY="3" orient="auto">
      <path d="M0,0 L8,3 L0,6 Z" fill="#0078D4"/>
    </marker>
    <linearGradient id="stepGrad" x1="0%" y1="0%" x2="0%" y2="100%">
      <stop offset="0%" stop-color="#E3F2FD"/>
      <stop offset="100%" stop-color="#BBDEFB"/>
    </linearGradient>
  </defs>
  <text x="390" y="22" text-anchor="middle" font-size="15" font-weight="bold" fill="#1565C0">KAITO Workflow</text>
  
  <!-- Step 1 -->
  <rect x="10" y="50" width="130" height="60" rx="8" fill="url(#stepGrad)" stroke="#1565C0" stroke-width="1.5"/>
  <text x="75" y="75" text-anchor="middle" font-weight="600" fill="#0D47A1">Create</text>
  <text x="75" y="92" text-anchor="middle" fill="#0D47A1">Workspace CR</text>
  <line x1="140" y1="80" x2="165" y2="80" stroke="#0078D4" stroke-width="2" marker-end="url(#arrow)"/>

  <!-- Step 2 -->
  <rect x="170" y="50" width="130" height="60" rx="8" fill="url(#stepGrad)" stroke="#1565C0" stroke-width="1.5"/>
  <text x="235" y="75" text-anchor="middle" font-weight="600" fill="#0D47A1">KAITO Provisions</text>
  <text x="235" y="92" text-anchor="middle" fill="#0D47A1">GPU Nodes</text>
  <line x1="300" y1="80" x2="325" y2="80" stroke="#0078D4" stroke-width="2" marker-end="url(#arrow)"/>

  <!-- Step 3 -->
  <rect x="330" y="50" width="130" height="60" rx="8" fill="url(#stepGrad)" stroke="#1565C0" stroke-width="1.5"/>
  <text x="395" y="75" text-anchor="middle" font-weight="600" fill="#0D47A1">Downloads</text>
  <text x="395" y="92" text-anchor="middle" fill="#0D47A1">Model Weights</text>
  <line x1="460" y1="80" x2="485" y2="80" stroke="#0078D4" stroke-width="2" marker-end="url(#arrow)"/>

  <!-- Step 4 -->
  <rect x="490" y="50" width="130" height="60" rx="8" fill="url(#stepGrad)" stroke="#1565C0" stroke-width="1.5"/>
  <text x="555" y="75" text-anchor="middle" font-weight="600" fill="#0D47A1">Starts Inference</text>
  <text x="555" y="92" text-anchor="middle" fill="#0D47A1">Server</text>
  <line x1="620" y1="80" x2="645" y2="80" stroke="#0078D4" stroke-width="2" marker-end="url(#arrow)"/>

  <!-- Step 5 -->
  <rect x="650" y="50" width="120" height="60" rx="8" fill="#E8F5E9" stroke="#2E7D32" stroke-width="1.5"/>
  <text x="710" y="75" text-anchor="middle" font-weight="600" fill="#1B5E20">Exposes API</text>
  <text x="710" y="92" text-anchor="middle" fill="#1B5E20">Endpoint</text>

  <!-- Automated zone background -->
  <rect x="165" y="38" width="610" height="80" rx="10" fill="#F0F8FF" stroke="#90CAF9" stroke-width="1" stroke-dasharray="5,3" opacity="0.5"/>

  <!-- Labels -->
  <text x="75" y="145" text-anchor="middle" font-size="11" font-weight="600" fill="#0D47A1">You do this</text>
  <line x1="75" y1="115" x2="75" y2="135" stroke="#0D47A1" stroke-width="1.5"/>

  <text x="470" y="145" text-anchor="middle" font-size="11" font-weight="600" fill="#2E7D32">KAITO handles all of this automatically</text>
  <line x1="310" y1="135" x2="630" y2="135" stroke="#2E7D32" stroke-width="1.5"/>
  <line x1="310" y1="130" x2="310" y2="135" stroke="#2E7D32" stroke-width="1.5"/>
  <line x1="630" y1="130" x2="630" y2="135" stroke="#2E7D32" stroke-width="1.5"/>
</svg>
